<mxfile host="drawio-plugin" modified="2021-03-30T19:01:31.018Z" agent="5.0 (Windows NT 6.2; Win64; x64) AppleWebKit/537.36 (KHTML, like Gecko) Chrome/81.0.4044.113 Safari/537.36" etag="JNiCU3zPxG2x9NwjZ_lE" version="13.7.9" type="embed"><diagram id="xhvt2LFHJjnRNs5IQC9b" name="Page-1"><mxGraphModel dx="1742" dy="1980" grid="1" gridSize="10" guides="1" tooltips="1" connect="1" arrows="1" fold="1" page="1" pageScale="1" pageWidth="850" pageHeight="1100" math="0" shadow="0"><root><mxCell id="0"/><mxCell id="1" parent="0"/><mxCell id="12" value="" style="rounded=0;whiteSpace=wrap;html=1;" parent="1" vertex="1"><mxGeometry x="220" y="-250" width="840" height="820" as="geometry"/></mxCell><mxCell id="2" value="Chair or Co-chair" style="shape=umlActor;verticalLabelPosition=bottom;verticalAlign=top;html=1;outlineConnect=0;" parent="1" vertex="1"><mxGeometry x="110" y="450" width="30" height="60" as="geometry"/></mxCell><mxCell id="3" value="Program Committee member" style="shape=umlActor;verticalLabelPosition=bottom;verticalAlign=top;html=1;outlineConnect=0;" parent="1" vertex="1"><mxGeometry x="110" y="220" width="30" height="60" as="geometry"/></mxCell><mxCell id="7" value="CMS" style="shape=umlActor;verticalLabelPosition=bottom;verticalAlign=top;html=1;outlineConnect=0;" parent="1" vertex="1"><mxGeometry x="1100" y="70" width="30" height="60" as="geometry"/></mxCell><mxCell id="13" value="Stop review phase" style="ellipse;whiteSpace=wrap;html=1;" parent="1" vertex="1"><mxGeometry x="920" y="-20" width="100" height="70" as="geometry"/></mxCell><mxCell id="16" value="Send paper review results" style="ellipse;whiteSpace=wrap;html=1;" parent="1" vertex="1"><mxGeometry x="850" y="-140" width="120" height="80" as="geometry"/></mxCell><mxCell id="17" value="&amp;lt;&amp;lt;include&amp;gt;&amp;gt;" style="html=1;verticalAlign=bottom;endArrow=open;dashed=1;endSize=8;" parent="1" source="13" target="16" edge="1"><mxGeometry relative="1" as="geometry"><mxPoint x="830" y="340" as="sourcePoint"/><mxPoint x="750" y="340" as="targetPoint"/></mxGeometry></mxCell><mxCell id="18" value="" style="endArrow=none;html=1;entryX=0;entryY=0.3333333333333333;entryDx=0;entryDy=0;entryPerimeter=0;" parent="1" source="13" target="7" edge="1"><mxGeometry width="50" height="50" relative="1" as="geometry"><mxPoint x="860" y="230" as="sourcePoint"/><mxPoint x="910" y="180" as="targetPoint"/></mxGeometry></mxCell><mxCell id="20" value="" style="endArrow=none;html=1;exitX=0;exitY=0.3333333333333333;exitDx=0;exitDy=0;exitPerimeter=0;" parent="1" source="38" target="16" edge="1"><mxGeometry width="50" height="50" relative="1" as="geometry"><mxPoint x="410" y="540" as="sourcePoint"/><mxPoint x="460" y="490" as="targetPoint"/></mxGeometry></mxCell><mxCell id="27" value="Program Committee Member" style="shape=umlActor;verticalLabelPosition=bottom;verticalAlign=top;html=1;outlineConnect=0;" parent="1" vertex="1"><mxGeometry x="1180" y="180" width="30" height="60" as="geometry"/></mxCell><mxCell id="29" value="Receive message&amp;nbsp;" style="ellipse;whiteSpace=wrap;html=1;" parent="1" vertex="1"><mxGeometry x="920" y="260" width="80" height="60" as="geometry"/></mxCell><mxCell id="30" value="" style="endArrow=none;html=1;entryX=0;entryY=0.3333333333333333;entryDx=0;entryDy=0;entryPerimeter=0;exitX=1;exitY=0.5;exitDx=0;exitDy=0;" parent="1" source="29" target="27" edge="1"><mxGeometry width="50" height="50" relative="1" as="geometry"><mxPoint x="1050" y="180" as="sourcePoint"/><mxPoint x="1100" y="130" as="targetPoint"/></mxGeometry></mxCell><mxCell id="31" value="See reviews that have conflicts" style="ellipse;whiteSpace=wrap;html=1;" parent="1" vertex="1"><mxGeometry x="330" y="470" width="120" height="80" as="geometry"/></mxCell><mxCell id="32" value="" style="endArrow=none;html=1;exitX=1;exitY=0.3333333333333333;exitDx=0;exitDy=0;exitPerimeter=0;" parent="1" source="2" target="31" edge="1"><mxGeometry width="50" height="50" relative="1" as="geometry"><mxPoint x="190" y="120" as="sourcePoint"/><mxPoint x="240" y="70" as="targetPoint"/></mxGeometry></mxCell><mxCell id="33" value="Decide on outcome" style="ellipse;whiteSpace=wrap;html=1;" parent="1" vertex="1"><mxGeometry x="610" y="390" width="100" height="70" as="geometry"/></mxCell><mxCell id="34" value="Add new reviewer" style="ellipse;whiteSpace=wrap;html=1;" parent="1" vertex="1"><mxGeometry x="650" y="480" width="90" height="60" as="geometry"/></mxCell><mxCell id="35" value="&amp;lt;&amp;lt;extend&amp;gt;&amp;gt;" style="endArrow=none;html=1;" parent="1" source="31" target="34" edge="1"><mxGeometry width="50" height="50" relative="1" as="geometry"><mxPoint x="380" y="100" as="sourcePoint"/><mxPoint x="430" y="50" as="targetPoint"/></mxGeometry></mxCell><mxCell id="36" value="&amp;lt;&amp;lt;extend&amp;gt;&amp;gt;" style="endArrow=none;html=1;" parent="1" source="31" target="33" edge="1"><mxGeometry width="50" height="50" relative="1" as="geometry"><mxPoint x="390" y="200" as="sourcePoint"/><mxPoint x="440" y="150" as="targetPoint"/></mxGeometry></mxCell><mxCell id="38" value="Author" style="shape=umlActor;verticalLabelPosition=bottom;verticalAlign=top;html=1;outlineConnect=0;" parent="1" vertex="1"><mxGeometry x="1120" y="-120" width="30" height="60" as="geometry"/></mxCell><mxCell id="39" value="Browse submissions left to review" style="ellipse;whiteSpace=wrap;html=1;" parent="1" vertex="1"><mxGeometry x="340" y="20" width="110" height="70" as="geometry"/></mxCell><mxCell id="44" value="Browse reviewed submissions" style="ellipse;whiteSpace=wrap;html=1;" parent="1" vertex="1"><mxGeometry x="365" y="300" width="120" height="80" as="geometry"/></mxCell><mxCell id="45" value="" style="endArrow=none;html=1;entryX=0;entryY=1;entryDx=0;entryDy=0;entryPerimeter=0;" parent="1" source="34" target="27" edge="1"><mxGeometry width="50" height="50" relative="1" as="geometry"><mxPoint x="710" y="110" as="sourcePoint"/><mxPoint x="760" y="60" as="targetPoint"/></mxGeometry></mxCell><mxCell id="46" value="" style="endArrow=none;html=1;entryX=0.5;entryY=0.5;entryDx=0;entryDy=0;entryPerimeter=0;" parent="1" source="44" target="3" edge="1"><mxGeometry width="50" height="50" relative="1" as="geometry"><mxPoint x="100" y="390" as="sourcePoint"/><mxPoint x="150" y="340" as="targetPoint"/></mxGeometry></mxCell><mxCell id="47" value="See Program Commitee Members with conflicting reviews" style="ellipse;whiteSpace=wrap;html=1;" parent="1" vertex="1"><mxGeometry x="500" y="130" width="120" height="80" as="geometry"/></mxCell><mxCell id="48" value="&amp;lt;&amp;lt;extend&amp;gt;&amp;gt;" style="endArrow=none;html=1;" parent="1" source="115" target="47" edge="1"><mxGeometry width="50" height="50" relative="1" as="geometry"><mxPoint x="450" y="260" as="sourcePoint"/><mxPoint x="700" y="260" as="targetPoint"/></mxGeometry></mxCell><mxCell id="49" value="&amp;lt;&amp;lt;extend&amp;gt;&amp;gt;" style="endArrow=none;html=1;" parent="1" source="47" target="50" edge="1"><mxGeometry width="50" height="50" relative="1" as="geometry"><mxPoint x="570" y="410" as="sourcePoint"/><mxPoint x="820" y="410" as="targetPoint"/></mxGeometry></mxCell><mxCell id="50" value="Send message to another Program Committee member" style="ellipse;whiteSpace=wrap;html=1;" parent="1" vertex="1"><mxGeometry x="300" y="190" width="120" height="80" as="geometry"/></mxCell><mxCell id="51" value="" style="endArrow=none;html=1;entryX=0.25;entryY=0.1;entryDx=0;entryDy=0;entryPerimeter=0;" parent="1" source="50" target="27" edge="1"><mxGeometry width="50" height="50" relative="1" as="geometry"><mxPoint x="460" y="330" as="sourcePoint"/><mxPoint x="510" y="280" as="targetPoint"/></mxGeometry></mxCell><mxCell id="52" value="" style="endArrow=none;html=1;entryX=0;entryY=0.5;entryDx=0;entryDy=0;" parent="1" target="39" edge="1" source="3"><mxGeometry width="50" height="50" relative="1" as="geometry"><mxPoint x="141" y="256.375" as="sourcePoint"/><mxPoint x="280.2623798973816" y="315.56151145638717" as="targetPoint"/></mxGeometry></mxCell><mxCell id="54" value="&amp;lt;&amp;lt;extend&amp;gt;&amp;gt;" style="endArrow=none;html=1;" parent="1" source="110" edge="1" target="55"><mxGeometry width="50" height="50" relative="1" as="geometry"><mxPoint x="190" y="170" as="sourcePoint"/><mxPoint x="500" y="320" as="targetPoint"/></mxGeometry></mxCell><mxCell id="55" value="Review submission" style="ellipse;whiteSpace=wrap;html=1;" parent="1" vertex="1"><mxGeometry x="425" y="-60" width="120" height="80" as="geometry"/></mxCell><mxCell id="85" value="" style="shape=table;html=1;whiteSpace=wrap;startSize=0;container=1;collapsible=0;childLayout=tableLayout;" vertex="1" parent="1"><mxGeometry x="320" y="670" width="550" height="200" as="geometry"/></mxCell><mxCell id="86" value="" style="shape=partialRectangle;html=1;whiteSpace=wrap;collapsible=0;dropTarget=0;pointerEvents=0;fillColor=none;top=0;left=0;bottom=0;right=0;points=[[0,0.5],[1,0.5]];portConstraint=eastwest;" vertex="1" parent="85"><mxGeometry width="550" height="40" as="geometry"/></mxCell><mxCell id="87" value="&lt;b&gt;Name&lt;/b&gt;" style="shape=partialRectangle;html=1;whiteSpace=wrap;connectable=0;overflow=hidden;fillColor=none;top=0;left=0;bottom=0;right=0;" vertex="1" parent="86"><mxGeometry width="100" height="40" as="geometry"/></mxCell><mxCell id="88" value="Review Management" style="shape=partialRectangle;html=1;whiteSpace=wrap;connectable=0;overflow=hidden;fillColor=none;top=0;left=0;bottom=0;right=0;" vertex="1" parent="86"><mxGeometry x="100" width="450" height="40" as="geometry"/></mxCell><mxCell id="89" value="" style="shape=partialRectangle;html=1;whiteSpace=wrap;collapsible=0;dropTarget=0;pointerEvents=0;fillColor=none;top=0;left=0;bottom=0;right=0;points=[[0,0.5],[1,0.5]];portConstraint=eastwest;" vertex="1" parent="85"><mxGeometry y="40" width="550" height="40" as="geometry"/></mxCell><mxCell id="90" value="&lt;b&gt;Description&lt;/b&gt;" style="shape=partialRectangle;html=1;whiteSpace=wrap;connectable=0;overflow=hidden;fillColor=none;top=0;left=0;bottom=0;right=0;" vertex="1" parent="89"><mxGeometry width="100" height="40" as="geometry"/></mxCell><mxCell id="91" value="Represents the cases for reviewing a submission, communicating between reviewers on conflicting reviews,&amp;nbsp; stopping review phase and informing authors" style="shape=partialRectangle;html=1;whiteSpace=wrap;connectable=0;overflow=hidden;fillColor=none;top=0;left=0;bottom=0;right=0;align=left;" vertex="1" parent="89"><mxGeometry x="100" width="450" height="40" as="geometry"/></mxCell><mxCell id="92" value="" style="shape=partialRectangle;html=1;whiteSpace=wrap;collapsible=0;dropTarget=0;pointerEvents=0;fillColor=none;top=0;left=0;bottom=0;right=0;points=[[0,0.5],[1,0.5]];portConstraint=eastwest;" vertex="1" parent="85"><mxGeometry y="80" width="550" height="40" as="geometry"/></mxCell><mxCell id="93" value="&lt;b&gt;Actors&lt;/b&gt;" style="shape=partialRectangle;html=1;whiteSpace=wrap;connectable=0;overflow=hidden;fillColor=none;top=0;left=0;bottom=0;right=0;" vertex="1" parent="92"><mxGeometry width="100" height="40" as="geometry"/></mxCell><mxCell id="94" value="&lt;b&gt;Program Commitee member, Chair/Co-Chair,&amp;nbsp; Author&lt;/b&gt;" style="shape=partialRectangle;html=1;whiteSpace=wrap;connectable=0;overflow=hidden;fillColor=none;top=0;left=0;bottom=0;right=0;align=left;" vertex="1" parent="92"><mxGeometry x="100" width="450" height="40" as="geometry"/></mxCell><mxCell id="95" value="" style="shape=partialRectangle;html=1;whiteSpace=wrap;collapsible=0;dropTarget=0;pointerEvents=0;fillColor=none;top=0;left=0;bottom=0;right=0;points=[[0,0.5],[1,0.5]];portConstraint=eastwest;" vertex="1" parent="85"><mxGeometry y="120" width="550" height="40" as="geometry"/></mxCell><mxCell id="96" value="&lt;b&gt;Pre-condition&lt;/b&gt;" style="shape=partialRectangle;html=1;whiteSpace=wrap;connectable=0;overflow=hidden;fillColor=none;top=0;left=0;bottom=0;right=0;" vertex="1" parent="95"><mxGeometry width="100" height="40" as="geometry"/></mxCell><mxCell id="97" value="The review period must have started" style="shape=partialRectangle;html=1;whiteSpace=wrap;connectable=0;overflow=hidden;fillColor=none;top=0;left=0;bottom=0;right=0;" vertex="1" parent="95"><mxGeometry x="100" width="450" height="40" as="geometry"/></mxCell><mxCell id="98" value="" style="shape=partialRectangle;html=1;whiteSpace=wrap;collapsible=0;dropTarget=0;pointerEvents=0;fillColor=none;top=0;left=0;bottom=0;right=0;points=[[0,0.5],[1,0.5]];portConstraint=eastwest;" vertex="1" parent="85"><mxGeometry y="160" width="550" height="40" as="geometry"/></mxCell><mxCell id="99" value="&lt;b&gt;Post-condition&lt;/b&gt;" style="shape=partialRectangle;html=1;whiteSpace=wrap;connectable=0;overflow=hidden;fillColor=none;top=0;left=0;bottom=0;right=0;" vertex="1" parent="98"><mxGeometry width="100" height="40" as="geometry"/></mxCell><mxCell id="100" value="Papers are rejected/approved based on reviews, authors are informed of reviews." style="shape=partialRectangle;html=1;whiteSpace=wrap;connectable=0;overflow=hidden;fillColor=none;top=0;left=0;bottom=0;right=0;" vertex="1" parent="98"><mxGeometry x="100" width="450" height="40" as="geometry"/></mxCell><mxCell id="102" value="" style="shape=card;whiteSpace=wrap;html=1;rotation=-180;" vertex="1" parent="1"><mxGeometry x="220" y="-250" width="210" height="60" as="geometry"/></mxCell><mxCell id="104" value="CMS-Review Management" style="text;html=1;align=center;verticalAlign=middle;resizable=0;points=[];autosize=1;" vertex="1" parent="1"><mxGeometry x="240" y="-230" width="160" height="20" as="geometry"/></mxCell><mxCell id="106" value="" style="endArrow=none;html=1;entryX=0.5;entryY=0.5;entryDx=0;entryDy=0;entryPerimeter=0;" edge="1" parent="1" source="39" target="7"><mxGeometry width="50" height="50" relative="1" as="geometry"><mxPoint x="690" y="330" as="sourcePoint"/><mxPoint x="1110" y="240" as="targetPoint"/></mxGeometry></mxCell><mxCell id="109" value="" style="endArrow=none;html=1;entryX=0.5;entryY=0.5;entryDx=0;entryDy=0;entryPerimeter=0;" edge="1" parent="1" source="110" target="7"><mxGeometry width="50" height="50" relative="1" as="geometry"><mxPoint x="1090" y="113" as="sourcePoint"/><mxPoint x="980" y="80" as="targetPoint"/></mxGeometry></mxCell><mxCell id="110" value="Get submissions for which PC member is assigned, but has not yet reviewed" style="ellipse;whiteSpace=wrap;html=1;" vertex="1" parent="1"><mxGeometry x="620" y="-70" width="140" height="100" as="geometry"/></mxCell><mxCell id="113" value="" style="endArrow=none;html=1;entryX=0;entryY=1;entryDx=0;entryDy=0;entryPerimeter=0;" edge="1" parent="1" source="44" target="7"><mxGeometry width="50" height="50" relative="1" as="geometry"><mxPoint x="80" y="420" as="sourcePoint"/><mxPoint x="130" y="370" as="targetPoint"/></mxGeometry></mxCell><mxCell id="115" value="Get submissions for which PC member is assigned and has reviewed" style="ellipse;whiteSpace=wrap;html=1;" vertex="1" parent="1"><mxGeometry x="680" y="100" width="120" height="80" as="geometry"/></mxCell><mxCell id="116" value="" style="endArrow=none;html=1;" edge="1" parent="1" source="115" target="7"><mxGeometry width="50" height="50" relative="1" as="geometry"><mxPoint x="1320" y="10" as="sourcePoint"/><mxPoint x="1370" y="-40" as="targetPoint"/></mxGeometry></mxCell><mxCell id="117" value="Improve paper based on reviews" style="ellipse;whiteSpace=wrap;html=1;" vertex="1" parent="1"><mxGeometry x="870" y="-240" width="120" height="80" as="geometry"/></mxCell><mxCell id="118" value="" style="endArrow=none;html=1;exitX=0.5;exitY=0;exitDx=0;exitDy=0;exitPerimeter=0;" edge="1" parent="1" source="38" target="117"><mxGeometry width="50" height="50" relative="1" as="geometry"><mxPoint x="1180" y="-170" as="sourcePoint"/><mxPoint x="1230" y="-220" as="targetPoint"/></mxGeometry></mxCell></root></mxGraphModel></diagram></mxfile>